<svg xmlns="http://www.w3.org/2000/svg" viewBox="0 0 256 256">
<defs>
 <linearGradient id="g" x1="0" y1="0" x2="1" y2="1"><stop offset="0" stop-color="#b69ae9"/><stop offset=".55" stop-color="#d5c7f4"/><stop offset="1" stop-color="#a887df"/></linearGradient>
 <linearGradient id="h" x1="0" y1="0" x2="0" y2="1"><stop offset="0" stop-color="#fff" stop-opacity=".78"/><stop offset=".45" stop-color="#fff" stop-opacity=".08"/><stop offset="1" stop-color="#000" stop-opacity=".08"/></linearGradient>
 <filter id="s" x="-30%" y="-30%" width="160%" height="170%"><feDropShadow dx="0" dy="10" stdDeviation="9" flood-color="#776b78" flood-opacity=".22"/></filter>
</defs>
<g filter="url(#s)"><path d="M128 209C69 172 55 121 87 85c19-22 37-39 41-54 5 15 22 32 41 54 32 36 18 87-41 124z" fill="#a98be5"/><path d="M128 196c-34-25-43-58-24-82 13-15 21-27 24-39 3 12 11 24 24 39 19 24 10 57-24 82z" fill="#c9b7f1"/><path d="M93 163c-30-10-48-35-48-66 30 5 51 23 61 51M163 163c30-10 48-35 48-66-30 5-51 23-61 51" fill="#8d72d2"/><path d="M115 69c8-13 17-22 20-33" stroke="#fff" stroke-opacity=".42" stroke-width="10" fill="none" stroke-linecap="round"/></g></svg>