<svg xmlns="http://www.w3.org/2000/svg" viewBox="0 0 160 160" role="img" aria-hidden="true">
<defs>
<linearGradient id="g" x1="0" y1="0" x2="1" y2="1"><stop offset="0" stop-color="#b8c8ee"/><stop offset="1" stop-color="#b9dfca"/></linearGradient>
<linearGradient id="h" x1="0" y1="0" x2="0" y2="1"><stop offset="0" stop-color="#ffffff" stop-opacity=".96"/><stop offset="1" stop-color="#f2f6ff" stop-opacity=".72"/></linearGradient>
<radialGradient id="shine" cx="35%" cy="22%" r="65%"><stop offset="0" stop-color="#fff" stop-opacity=".9"/><stop offset=".35" stop-color="#fff" stop-opacity=".22"/><stop offset="1" stop-color="#fff" stop-opacity="0"/></radialGradient>
<filter id="shadow" x="-30%" y="-30%" width="160%" height="180%"><feDropShadow dx="0" dy="5" stdDeviation="5" flood-color="#6f5a70" flood-opacity=".13"/></filter></defs><ellipse cx="80" cy="134" rx="43" ry="8" fill="#8a7488" opacity=".08"/><g filter="url(#shadow)"><path d="M80 23l16 33 36 5-26 25 6 36-32-17-32 17 6-36-26-25 36-5z" fill="url(#g)"/><path d="M80 35l10 23 25 4-18 17 4 25-21-12-21 12 4-25-18-17 25-4z" fill="url(#shine)" opacity=".6"/><path d="M128 29l3 8 8 3-8 3-3 8-3-8-8-3 8-3zM38 31l2 6 6 2-6 2-2 6-2-6-6-2 6-2z" fill="#fff0ac"/></g></svg>