<svg xmlns="http://www.w3.org/2000/svg" viewBox="0 0 160 160">
<defs>
  <linearGradient id="bg" x1="0" y1="0" x2="1" y2="1">
    <stop offset="0" stop-color="#faebe3"/><stop offset="1" stop-color="#e9eef5"/>
  </linearGradient>
  <filter id="sh" x="-30%" y="-30%" width="160%" height="160%">
    <feDropShadow dx="0" dy="5" stdDeviation="6" flood-color="#67576e" flood-opacity=".16"/>
  </filter>
  <filter id="soft" x="-30%" y="-30%" width="160%" height="160%">
    <feGaussianBlur stdDeviation="2"/>
  </filter>
</defs>
<rect width="160" height="160" rx="38" fill="url(#bg)"/>
<g filter="url(#sh)"><path d="M80 38c-24 20-31 41-23 59 7 15 21 24 23 25 2-1 16-10 23-25 8-18 1-39-23-59z" fill="#d2a28e"/><path d="M80 52v57M59 78c11 0 18 6 21 14M101 78c-11 0-18 6-21 14" fill="none" stroke="#fff6f0" stroke-width="6" stroke-linecap="round"/></g>
</svg>