<svg xmlns="http://www.w3.org/2000/svg" viewBox="0 0 160 160" role="img" aria-hidden="true">
<defs>
<linearGradient id="g" x1="0" y1="0" x2="1" y2="1"><stop offset="0" stop-color="#a9d9c7"/><stop offset="1" stop-color="#c8b7e8"/></linearGradient>
<linearGradient id="h" x1="0" y1="0" x2="0" y2="1"><stop offset="0" stop-color="#ffffff" stop-opacity=".96"/><stop offset="1" stop-color="#f2fbf4" stop-opacity=".72"/></linearGradient>
<radialGradient id="shine" cx="35%" cy="22%" r="65%"><stop offset="0" stop-color="#fff" stop-opacity=".9"/><stop offset=".35" stop-color="#fff" stop-opacity=".22"/><stop offset="1" stop-color="#fff" stop-opacity="0"/></radialGradient>
<filter id="shadow" x="-30%" y="-30%" width="160%" height="180%"><feDropShadow dx="0" dy="5" stdDeviation="5" flood-color="#6f5a70" flood-opacity=".13"/></filter></defs><ellipse cx="80" cy="134" rx="43" ry="8" fill="#8a7488" opacity=".08"/><g filter="url(#shadow)"><path d="M80 126c-2-28 1-47 7-62" fill="none" stroke="#7fb49b" stroke-width="7" stroke-linecap="round"/><path d="M82 96c-17-10-27-6-31 5 13 5 24 2 31-5z" fill="#9fd0b7"/><path d="M86 79c13-13 25-11 32-1-10 10-22 12-32 1z" fill="#aad7bf"/><g transform="translate(85 55)"><ellipse rx="14" ry="28" fill="url(#g)" transform="rotate(0) translate(0 -14)"/><ellipse rx="14" ry="28" fill="url(#g)" transform="rotate(72) translate(0 -14)"/><ellipse rx="14" ry="28" fill="url(#g)" transform="rotate(144) translate(0 -14)"/><ellipse rx="14" ry="28" fill="url(#g)" transform="rotate(216) translate(0 -14)"/><ellipse rx="14" ry="28" fill="url(#g)" transform="rotate(288) translate(0 -14)"/><circle r="14" fill="#f3c96f"/><circle cx="-5" cy="-5" r="5" fill="#fff" opacity=".35"/></g></g></svg>